<?xml version="1.0" encoding="UTF-8" standalone="no"?>
<svg class="svg-canvas" viewBox="0 0 240 180" width="2400" height="1800" preserveAspectRatio="none" version="1.1" id="svg7" sodipodi:docname="svgexport-15.svg" inkscape:version="1.3.2 (091e20e, 2023-11-25, custom)"
   xmlns:inkscape="http://www.inkscape.org/namespaces/inkscape"
   xmlns:sodipodi="http://sodipodi.sourceforge.net/DTD/sodipodi-0.dtd"
   xmlns="http://www.w3.org/2000/svg"
   xmlns:svg="http://www.w3.org/2000/svg">
   <sodipodi:namedview id="namedview7" pagecolor="#ffffff" bordercolor="#000000" borderopacity="0.25" inkscape:showpageshadow="2" inkscape:pageopacity="0.0" inkscape:pagecheckerboard="0" inkscape:deskcolor="#d1d1d1" showgrid="false" inkscape:zoom="0.11533333" inkscape:cx="4001.4451" inkscape:cy="2306.3584" inkscape:window-width="1600" inkscape:window-height="930" inkscape:window-x="-6" inkscape:window-y="-6" inkscape:window-maximized="1" inkscape:current-layer="svg7" />
   <!--滤镜-->
   <defs id="defs1" />
   <!--元素-->
   <g id="thumbnail_shape_84fMVNjpqn" ref="shape_84fMVNjpqn" key="shape_84fMVNjpqn" mask="" transform="translate(-97.109823,-182.94798)">
      <g transform="translate(127.35261,193.42109)" style="opacity:1" filter="" id="g1">
         <!--普通元素-->
         <rect fill="#000000" width="127.57895" height="173.01205" x="-10" y="-10" fill-opacity="0" id="rect1" />
         <svg version="1.1" id="thumbnail_图层_1" x="0px" y="0px" width="107.57895" height="153.01205" viewBox="0 0 162.7 200" xml:space="preserve" class="style-removed" preserveAspectRatio="none" data-parent="shape_84fMVNjpqn">

            <path d="M 153.3,163.4 15.8,199.6 C 7.8,201.7 0,195.7 0,187.4 V 12.6 C 0,4.4 7.8,-1.7 15.8,0.4 l 137.5,36.1 c 5.5,1.5 9.4,6.5 9.4,12.2 v 102.5 c 0,5.8 -3.8,10.8 -9.4,12.2 z" fill="#B11016" stroke-width="0px" id="path1" />
         </svg>
      </g>
   </g>
   <g id="thumbnail_shape_TF37MeqZxx" ref="shape_TF37MeqZxx" key="shape_TF37MeqZxx" mask="" transform="translate(-97.109823,-182.94798)">
      <g transform="translate(-17.110762,53.927115)" style="opacity:1" filter="" id="g7">
         <!--普通元素-->
         <svg version="1.1" width="602" height="432" viewBox="0 0 602 432" data-ligature="true" data-parent="shape_TF37MeqZxx" id="svg6">
            <g data-role="text" data-width="155.06" data-height="72" transform="translate(180,180)" id="g6">
               <path d="m 10.44,-0.12 q -0.3,0 -0.51,-0.21 -0.21,-0.21 -0.21,-0.51 v 0 -14.76 l -0.06,-0.36 -8.4,-25.2 Q 1.2,-41.28 1.2,-41.46 v 0 Q 1.2,-42 1.8,-42 v 0 h 9 q 0.6,0 0.78,0.66 v 0 l 3,13.2 q 0.06,0.24 0.18,0.24 0.12,0 0.18,-0.24 v 0 l 3,-13.2 Q 18.12,-42 18.72,-42 v 0 h 9 q 0.36,0 0.51,0.21 0.15,0.21 0.03,0.63 v 0 l -8.52,25.2 -0.06,0.36 v 14.76 q 0,0.3 -0.21,0.51 -0.21,0.21 -0.51,0.21 v 0 z" transform="translate(0,60)" fill="#ffffff" stroke="#ffffff" stroke-width="0.1px" data-glyph-w="40.519999999999996" data-glyph-h="72" data-glyph-ascender="60" data-glyph-descender="-12" data-kerning="0" id="path2" />
               <path d="m 6.6,-33.78 q -2.22,0 -3.69,-1.47 Q 1.44,-36.72 1.44,-39 v 0 q 0,-2.34 1.44,-3.78 1.44,-1.44 3.72,-1.44 v 0 q 2.28,0 3.75,1.44 1.47,1.44 1.47,3.78 v 0 q 0,2.22 -1.47,3.72 -1.47,1.5 -3.75,1.5 z M 2.46,0 Q 2.16,0 1.95,-0.21 1.74,-0.42 1.74,-0.72 v 0 -29.58 q 0,-0.3 0.21,-0.51 0.21,-0.21 0.51,-0.21 v 0 h 8.52 q 0.3,0 0.51,0.21 0.21,0.21 0.21,0.51 v 0 29.58 q 0,0.3 -0.21,0.51 Q 11.28,0 10.98,0 v 0 z" transform="translate(40.52,60)" fill="#ffffff" stroke="#ffffff" stroke-width="0.1px" data-glyph-w="24.38" data-glyph-h="72" data-glyph-ascender="60" data-glyph-descender="-12" data-kerning="0" id="path3" />
               <path d="M 0,0 Z" transform="translate(64.9,60)" fill="#ffffff" stroke="#ffffff" stroke-width="0.1px" data-glyph-w="23" data-glyph-h="72" data-glyph-ascender="60" data-glyph-descender="-12" data-kerning="0" id="path4" />
               <path d="m 18.48,0 q -0.66,0 -0.84,-0.6 v 0 l -4.08,-15.9 q -0.06,-0.24 -0.3,-0.24 v 0 h -0.9 q -0.3,0 -0.3,0.3 v 0 15.72 q 0,0.3 -0.21,0.51 Q 11.64,0 11.34,0 V 0 H 2.82 Q 2.52,0 2.31,-0.21 2.1,-0.42 2.1,-0.72 v 0 -40.56 q 0,-0.3 0.21,-0.51 Q 2.52,-42 2.82,-42 v 0 h 12.9 q 3.48,0 6.18,1.65 2.7,1.65 4.17,4.62 1.47,2.97 1.47,6.75 v 0 q 0,3.36 -1.23,6.03 -1.23,2.67 -3.45,4.29 v 0 q -0.12,0.06 -0.18,0.15 -0.06,0.09 0,0.21 v 0 l 5.16,17.46 0.06,0.24 Q 27.9,0 27.24,0 v 0 z m -6.12,-33.48 q -0.3,0 -0.3,0.3 v 0 8.52 q 0,0.3 0.3,0.3 v 0 h 1.68 q 1.62,0 2.58,-1.2 0.96,-1.2 0.96,-3.3 v 0 q 0,-2.22 -0.96,-3.42 -0.96,-1.2 -2.58,-1.2 v 0 z" transform="translate(87.9,60)" fill="#595757" stroke="#595757" stroke-width="0.1px" data-glyph-w="39.86" data-glyph-h="72" data-glyph-ascender="60" data-glyph-descender="-12" data-kerning="0" id="path5" />
               <path d="m 15.6,-30.3 q 0,-0.3 0.21,-0.51 0.21,-0.21 0.51,-0.21 v 0 h 8.52 q 0.3,0 0.51,0.21 0.21,0.21 0.21,0.51 v 0 29.58 q 0,0.3 -0.21,0.51 Q 25.14,0 24.84,0 V 0 H 16.32 Q 16.02,0 15.81,-0.21 15.6,-0.42 15.6,-0.72 v 0 -0.78 q 0,-0.18 -0.12,-0.21 -0.12,-0.03 -0.24,0.15 v 0 q -0.9,1.14 -2.19,1.59 -1.29,0.45 -3.03,0.45 v 0 q -3.6,0 -6,-2.22 -2.4,-2.22 -2.4,-6.84 v 0 -21.72 q 0,-0.3 0.21,-0.51 0.21,-0.21 0.51,-0.21 v 0 h 8.52 q 0.3,0 0.51,0.21 0.21,0.21 0.21,0.51 v 0 19.5 q 0,2.7 1.92,2.7 v 0 q 1.02,0 1.56,-0.72 0.54,-0.72 0.54,-2.04 v 0 z" transform="translate(127.76,60)" fill="#595757" stroke="#595757" stroke-width="0.1px" data-glyph-w="38.3" data-glyph-h="72" data-glyph-ascender="60" data-glyph-descender="-12" data-kerning="0" id="path6" />
            </g>
         </svg>
      </g>
   </g>
</svg>
