<?xml version="1.0" standalone="no"?><!DOCTYPE svg PUBLIC "-//W3C//DTD SVG 1.1//EN" "http://www.w3.org/Graphics/SVG/1.1/DTD/svg11.dtd"><svg t="1729904478603" class="icon" viewBox="0 0 1024 1024" version="1.1" xmlns="http://www.w3.org/2000/svg" p-id="1632" xmlns:xlink="http://www.w3.org/1999/xlink" width="200" height="200"><path d="M201 141.43h334c51.33 0 93 41.67 93 93v222.99c0 11.15-9.05 20.2-20.2 20.2H201c-51.33 0-93-41.67-93-93V234.43c0-51.33 41.67-93 93-93z" fill="#FFDD00" p-id="1633"></path><path d="M789.41 141.43H815c51.33 0 93 41.67 93 93v150.19c0 51.33-41.67 93-93 93h-92.51c-11.15 0-20.2-9.05-20.2-20.2V228.55c0-48.08 39.04-87.12 87.12-87.12z" fill="#FF5308" p-id="1634"></path><path d="M815 878.57H568.73c-47.19 0-85.49-38.31-85.49-85.49v-230.5c0-11.15 9.05-20.2 20.2-20.2H815c51.33 0 93 41.67 93 93v150.19c0 51.33-41.67 93-93 93z" fill="#FFDD00" p-id="1635"></path><path d="M323.46 878.57H201c-51.33 0-93-41.67-93-93V635.38c0-51.33 41.67-93 93-93h187.75c11.15 0 20.2 9.05 20.2 20.2v230.5c0 47.19-38.31 85.49-85.49 85.49z" fill="#FFC200" p-id="1636"></path></svg>