<?xml version="1.0" standalone="no"?><!DOCTYPE svg PUBLIC "-//W3C//DTD SVG 1.1//EN" "http://www.w3.org/Graphics/SVG/1.1/DTD/svg11.dtd"><svg t="1731821330710" class="icon" viewBox="0 0 1024 1024" version="1.1" xmlns="http://www.w3.org/2000/svg" p-id="9219" xmlns:xlink="http://www.w3.org/1999/xlink" width="200" height="200"><path d="M283.2384 280.7808c11.264-11.264 11.264-29.2864 2.2528-42.8032-11.264-15.7696-31.5392-18.0224-47.3088-6.7584-6.7584 4.5056-11.264 9.0112-15.7696 13.5168C110.1824 354.9184 69.632 521.4208 119.1936 669.9008c0.2048 0.8192 0.6144 1.6384 0.8192 2.2528-21.2992 18.432-34.6112 45.8752-34.6112 76.3904 0 56.32 45.056 101.1712 101.1712 101.1712 27.0336 0 51.8144-9.0112 71.8848-29.2864 18.0224-20.2752 29.2864-45.056 29.2864-71.8848 0-56.32-45.056-101.1712-101.1712-101.1712-1.4336 0-3.072 0-4.5056 0.2048v-0.2048c-40.5504-123.6992-6.7584-260.9152 87.6544-355.328l13.5168-11.264zM505.856 262.7584c9.0112 0 18.0224 0 24.7808-2.2528 24.7808-6.7584 47.3088-24.7808 60.6208-47.3088 3.072-4.5056 5.7344-9.216 7.7824-13.9264 131.2768 31.5392 233.472 135.7824 262.144 268.0832 4.5056 15.7696 18.0224 27.0336 33.792 27.0336h2.2528c20.2752-4.5056 31.5392-22.528 27.0336-40.5504-33.792-161.9968-159.744-287.9488-319.2832-321.536-1.2288-0.2048-2.6624-0.2048-3.8912-0.2048-17.6128-48.9472-69.8368-78.0288-119.808-64.9216-54.0672 13.5168-87.6544 67.3792-74.1376 121.4464 13.312 42.5984 53.8624 74.1376 98.7136 74.1376zM863.6416 633.856c-54.0672-13.5168-110.1824 18.0224-123.6992 71.8848-7.9872 31.9488-0.2048 64.7168 18.8416 89.088C666.4192 882.688 532.48 914.2272 409.1904 874.496c-18.0224-4.5056-38.2976 4.5056-42.8032 22.528-4.5056 18.0224 4.5056 36.0448 22.528 42.8032 40.5504 13.5168 85.4016 20.2752 128.2048 20.2752 112.4352 0 218.112-45.056 294.7072-123.6992 1.4336-2.048 2.8672-3.8912 4.3008-5.7344 7.5776 1.8432 15.1552 3.4816 22.7328 3.4816 47.3088 0 87.6544-31.5392 96.6656-76.3904 13.5168-54.0672-18.0224-110.3872-71.8848-123.904z" p-id="9220" fill="#d81e06"></path></svg>